<?xml version="1.0" encoding="UTF-8"?>
<svg overflow="visible" version="1.1" viewBox="0 0 723.11 557.47" xmlns="http://www.w3.org/2000/svg">
<g transform="translate(-63.514 -150.32)" fill="#ff3548" stroke="#ff3548" stroke-width="8.5">
<path d="m758.05 182.72c3.32 1.52 7.391 5.06 11.25 9.55l-2.05 1.59c-4.39 2.28-10.63 1.09-14.82-1.05-4.84-2.46-5.66-8.41 0.9-8.97l0.31-2.19c2.01 0.31 3.53 0.67 4.41 1.07zm-668.87 137.62c-6.46 52.24 19.5 141.4 19.5 141.4s1.68 7.47 3.21 18.09c-4.95 8.17-17.73 13.56-23.82 10.31-8.35-4.449-8.83-14.529-15.03-21.159-11.82-12.61-0.56-20.48-0.56-38.421 0-21.81 12.57-109.94 16.15-110.28zm57.23 248.07c8.31 28.95 17.62 61.66 21.21 65.56 6.81 7.38 31.29 4.46 27.08 19.28-3.13 11.03-4.46 3.73-22.44 8.43-1.91 0.49-3.93 1.011-5.97 1.42l-3.88 0.24c-4.9-18.86-12.06-68.25-16-94.93zm258.83 0.88c0.02 30.479-0.08 65.53 2.34 70.35 4.52 8.971 28.85 12.9 20.72 25.99-6.05 9.75-5.31 2.36-23.89 1.93-1.98-0.05-4.06-0.109-6.13-0.27l-3.87-0.03c0.09-19.06 6.3-70.46 10.83-97.97z"/>
<path d="m641.18 155.87c-5.26 4.24-6.1798 13.522-4.5898 19.762 0.74 2.92 2.3802 5.8181 4.1602 8.3281 0.201 0.29 0.58053 0.92055 1.0195 1.8106-25.63 17.9-24.109 65.79-46.889 99.43-23.39 34.53-62.381 17.26-62.381 17.26-0.57 0.22-7.8205-3.6993-9.9805-5.0293-20.01-12.31-41.368-48.319-60.578-61.379-8-5.44-19.731-12.521-29.381-14.781-11.36-2.65-23.3-0.75915-34.25-4.1191-8.66-2.66-13.4-9.9299-21.75-18.84-9.87-10.52-21.891-22.111-34.051-29.551-22.16-13.58-46.439-13.24-70.689-8.4902-18.97 3.7-36.66 16.891-50.49 30.111-10.66 10.18-18.779 29.96-31.189 38.35-6.36 4.31-13.44 4.7591-20.43 7.3691-6.97 2.61-13.94 5.3309-20.73 8.3809-25.24 11.38-41.11 29.08-53.67 53.52-3.11 6.05-5.0709 13.69-6.1309 22.34-6.46 52.24 19.5 141.4 19.5 141.4s1.6809 7.4699 3.2109 18.09c1.99 13.809 3.7089 32.929 1.1289 47.869-2.54 14.73-5.5099 23.992-2.6699 32.061 9.42 26.851 33.901 95.141 30.781 122.67-2.14 18.931 13.169 15.761 24.869 16.061 19.54 0.5 23.99 3.8407 23.33-5.5293-1.09-15.37-18.6-14.371-24.42-22.551-0.73-1.02-1.57-3.4984-2.5-7.0684-4.9-18.86-12.06-68.252-16-94.932-1.28-8.68-2.2206-14.95-2.6406-17-3.34-16.46 1e-3 -27.299 2.7812-48.449 0 0 6.1185-34.54 16.979-47.9 10.17-12.5 19.711-32.309 24.891-64.439l0.74024 0.11914c12.34 10 53.441 38.98 115.97 39.67 75.61 0.84 93.57-10.859 93.57-10.859h0.0996c0.01 1.46 0.01 2.9194 0 4.3594-0.13 17.65-0.0402 34.812-3.4902 52.102-3.12 15.6-7.1292 30.999-10.949 46.439-2.42 9.73-8.9494 20.529-8.3594 30.629 1.67 28.4 3.3398 100.25-7.2402 125.86-7.27 17.609 7.9202 20.529 19.49 22.279 18.38 2.78 25.62 4.4502 33.42-3.3398 10.89-10.899-23.39-14.48-26.73-23.951-0.38-1.08-0.55125-3.3989-0.53125-6.6699 0.09-19.06 6.3001-70.461 10.83-97.971 1.47-8.96 2.7711-15.39 3.6211-17.33 3.899-8.91 41.209-128.65 41.209-128.65 36.21-11.69 52.91-25.061 52.91-25.061 69.069 4.45 85.21 0.55972 125.87-38.99 36.181-35.18 35.081-94.669 50.121-111.94 15.04-17.26 47.899-21.719 60.699-23.939 12.811-2.23 6.13 6.6786 31.75 5.5586 19.26-0.83 9.5618-23.08-2.1191-36.67l-2.0508 1.5898c-4.389 2.28-10.63 1.0912-14.82-1.0488-4.84-2.46-5.6606-8.4107 0.90039-8.9707l0.31054-2.1894c-15.37-2.38-59.08-2.2695-59.08-2.2695-8.489-5.01-26.079-8.0716-34.09-6.9316 0 0-7.4216-6.65-9.8516-8.75-3.089-2.66-6.3495-5.1401-9.4394-7.8301zm55.9 36.322c0.229 3.78-0.99962 6.5812-5.3496 7.2012-4.59 0.64-7.1914-5.6797-7.1914-5.6797 6.96-1.38 9.051-1.8015 12.541-1.5215z"/>
</g>
<path d="m-103.9-162.81h850.39v850.39h-850.39z" fill="none"/>
<path d="m624.87 44.778a6.1206 6.1206 0 0 1-6.1206 6.1206 6.1206 6.1206 0 0 1-6.1206-6.1206 6.1206 6.1206 0 0 1 6.1206-6.1206 6.1206 6.1206 0 0 1 6.1206 6.1206z" fill="#fff" stroke-width=".51808"/>
</svg>
